# xmcd CD database file
#
# Track frame offsets:
#	150
#	14533
#	40649
#	60566
#	77434
#	97070
#	117804
#	121172
#	139432
#	161055
#	172144
#	192998
#
# Disc length: 2773 seconds
#
# Revision: 0
# Processed by: cddbd v1.5.1PL2 Copyright (c) Steve Scherf et al.
# Submitted via: CDex 1.70beta2
#
DISCID=a00ad30c
DTITLE=Jonah Smith - Jonah Smith
DYEAR=2006
DGENRE=Blues
TTITLE0=Little Black Angels
TTITLE1=When We Say Goodnight
TTITLE2=Stay Awhile
TTITLE3=My Morning Scene
TTITLE4=East A Long Shadow
TTITLE5=Killing Time
TTITLE6=Everything (intro)
TTITLE7=Everything Is New
TTITLE8=Give It All Away
TTITLE9=Both Sides
TTITLE10=Dressed in White
TTITLE11=Hidden Track
EXTD=YEAR: 2006
EXTT0=
EXTT1=
EXTT2=
EXTT3=
EXTT4=
EXTT5=
EXTT6=
EXTT7=
EXTT8=
EXTT9=
EXTT10=
EXTT11=
PLAYORDER=
